<?xml version="1.0" encoding="UTF-8" standalone="no"?>
<!-- Created with Inkscape (http://www.inkscape.org/) -->

<svg
   width="166.63081mm"
   height="165.76746mm"
   viewBox="0 0 166.63081 165.76746"
   version="1.1"
   id="svg1"
   sodipodi:docname="favicon.svg"
   inkscape:export-filename="favicon-32x32.png"
   inkscape:export-xdpi="5.6339159"
   inkscape:export-ydpi="5.6339159"
   inkscape:version="1.4.4 (dcaf3e7d9e, 2026-05-05)"
   xmlns:inkscape="http://www.inkscape.org/namespaces/inkscape"
   xmlns:sodipodi="http://sodipodi.sourceforge.net/DTD/sodipodi-0.dtd"
   xmlns="http://www.w3.org/2000/svg"
   xmlns:svg="http://www.w3.org/2000/svg">
  <sodipodi:namedview
     id="namedview1"
     pagecolor="#ffffff"
     bordercolor="#000000"
     borderopacity="0.25"
     inkscape:showpageshadow="2"
     inkscape:pageopacity="0.0"
     inkscape:pagecheckerboard="0"
     inkscape:deskcolor="#d1d1d1"
     inkscape:document-units="mm"
     inkscape:zoom="1.1093002"
     inkscape:cx="273.14517"
     inkscape:cy="315.06349"
     inkscape:window-width="2556"
     inkscape:window-height="1026"
     inkscape:window-x="0"
     inkscape:window-y="0"
     inkscape:window-maximized="0"
     inkscape:current-layer="layer1">
    <inkscape:page
       x="0"
       y="1.2423695e-21"
       width="166.63081"
       height="165.76746"
       id="page1"
       margin="0"
       bleed="0" />
  </sodipodi:namedview>
  <defs
     id="defs1" />
  <g
     inkscape:label="Layer 1"
     inkscape:groupmode="layer"
     id="layer1"
     transform="translate(-20.64534,-66.404072)">
    <!--!Font Awesome Free v7.2.0 by @fontawesome - https://fontawesome.com License - https://fontawesome.com/license/free Copyright 2026 Fonticons, Inc.-->
    <!--!Font Awesome Free v7.2.0 by @fontawesome - https://fontawesome.com License - https://fontawesome.com/license/free Copyright 2026 Fonticons, Inc.-->
    <circle
       style="fill:#24221c;fill-opacity:1;stroke:#ffffff;stroke-width:0.264583;stroke-opacity:1"
       id="path2-2"
       cx="106.02915"
       cy="152.35133"
       r="70" />
    <circle
       style="fill:#676350;fill-opacity:1;stroke:none;stroke-width:0.264583;stroke-opacity:1"
       id="path2"
       cx="101.89234"
       cy="146.22426"
       r="70" />
    <path
       d="m 65.844164,111.02561 c 0,-7.0873 5.762187,-12.849479 12.849438,-12.849479 h 30.015538 c 3.41314,0 6.68575,1.34518 9.09502,3.754449 l 21.38235,21.40241 c 2.40928,2.40928 3.75446,5.68189 3.75446,9.09502 v 55.69449 c 0,7.08729 -5.7622,12.84948 -12.84949,12.84948 H 78.693602 c -7.087251,0 -12.849438,-5.76219 -12.849438,-12.84948 z m 41.760716,-1.10425 v 18.77227 c 0,2.67029 2.14828,4.81856 4.81856,4.81856 h 18.7723 z m -17.668038,39.65269 c -2.670278,0 -4.818536,2.14827 -4.818536,4.81855 0,2.67029 2.148258,4.81856 4.818536,4.81856 h 28.911348 c 2.67028,0 4.81856,-2.14827 4.81856,-4.81856 0,-2.67028 -2.14828,-4.81855 -4.81856,-4.81855 z m 0,19.27422 c -2.670278,0 -4.818536,2.14827 -4.818536,4.81856 0,2.67028 2.148258,4.81855 4.818536,4.81855 h 28.911348 c 2.67028,0 4.81856,-2.14827 4.81856,-4.81855 0,-2.67029 -2.14828,-4.81856 -4.81856,-4.81856 z"
       id="path1-6"
       style="fill:#24221c;fill-opacity:1;stroke:none;stroke-width:0.200773;stroke-opacity:1" />
    <path
       d="m 60.843733,104.32602 c 0,-7.087299 5.76219,-12.849487 12.849483,-12.849487 h 30.015604 c 3.41314,0 6.68575,1.345181 9.09502,3.754455 l 21.38235,21.402412 c 2.40928,2.40928 3.75446,5.68189 3.75446,9.09502 v 55.69449 c 0,7.08729 -5.7622,12.84948 -12.84949,12.84948 H 73.693216 c -7.087293,0 -12.849483,-5.76219 -12.849483,-12.84948 z m 41.760827,-1.10425 v 18.77227 c 0,2.67029 2.14828,4.81856 4.81856,4.81856 h 18.7723 z m -17.668046,39.65269 c -2.670288,0 -4.818559,2.14827 -4.818559,4.81855 0,2.67029 2.148271,4.81856 4.818559,4.81856 h 28.911356 c 2.67028,0 4.81856,-2.14827 4.81856,-4.81856 0,-2.67028 -2.14828,-4.81855 -4.81856,-4.81855 z m 0,19.27422 c -2.670288,0 -4.818559,2.14827 -4.818559,4.81856 0,2.67028 2.148271,4.81855 4.818559,4.81855 h 28.911356 c 2.67028,0 4.81856,-2.14827 4.81856,-4.81855 0,-2.67029 -2.14828,-4.81856 -4.81856,-4.81856 z"
       id="path1"
       style="fill:#c8c4b7;stroke:#ffffff;stroke-width:0.200773;stroke-opacity:1" />
    <!--!Font Awesome Free v7.2.0 by @fontawesome - https://fontawesome.com License - https://fontawesome.com/license/free Copyright 2026 Fonticons, Inc.-->
  </g>
</svg>
